# xmcd CD database file
#
# Track frame offsets:
#	150
#	23760
#	54267
#	81790
#	91900
#	120690
#	147525
#	165167
#	194430
#	216952
#	235605
#
# Disc length: 3360 seconds
#
# Revision: 0
# Processed by: cddbd v1.5.1PL0 Copyright (c) Steve Scherf et al.
# Submitted via: CDex 1.50
#
DISCID=890d1e0b
DTITLE=David Berkman - Leaving Home
DYEAR=2002
DGENRE=Jazz
TTITLE0=Leaving Home
TTITLE1=Creepy
TTITLE2=Forever Astor
TTITLE3=Unchained Harmony
TTITLE4=Mayor of Smoke
TTITLE5=Tangoed Web
TTITLE6=Aftermath
TTITLE7=Knots
TTITLE8=Flotation Device
TTITLE9=Little and Big
TTITLE10=Empraceable You
EXTD=YEAR: 2002
EXTT0=
EXTT1=
EXTT2=
EXTT3=
EXTT4=
EXTT5=
EXTT6=
EXTT7=
EXTT8=
EXTT9=
EXTT10=
PLAYORDER=
